<svg xmlns="http://www.w3.org/2000/svg" xmlns:xlink="http://www.w3.org/1999/xlink" version="1.1" x="0px" y="0px" viewBox="0 0 90 90" enable-background="new 0 0 90 90" xml:space="preserve">
    <g>
        <path d="M76,21.4h-6.6v-3.6c0-1.6-1.3-2.8-2.8-2.8h-4c-1.6,0-2.8,1.3-2.8,2.8v3.6H35.6v-3.6c0-1.6-1.3-2.8-2.8-2.8h-4   c-1.6,0-2.8,1.3-2.8,2.8v3.6H19c-2.8,0-5,2.2-5,5v45.4c0,2.8,2.2,5,5,5h57c2.8,0,5-2.2,5-5V26.4C81,23.6,78.8,21.4,76,21.4z    M62.7,17.9h3.7v4.9v4h-3.7v-4V17.9z M28.9,17.9h3.7v4.9v4h-3.7v-4V17.9z M19,24.4h6.9V27c0,1.6,1.3,2.8,2.8,2.8h4   c1.6,0,2.8-1.3,2.8-2.8v-2.7h24.1V27c0,1.6,1.3,2.8,2.8,2.8h4c1.6,0,2.8-1.3,2.8-2.8v-2.7H76c1.1,0,2,0.9,2,2v8.1H17v-8.1   C17,25.3,17.9,24.4,19,24.4z M76,73.7H19c-1.1,0-2-0.9-2-2V37.5h61v34.3C78,72.9,77.1,73.7,76,73.7z" />
        <path d="M28.7,44.2h-4.9c-0.8,0-1.5,0.7-1.5,1.5s0.7,1.5,1.5,1.5h4.9c0.8,0,1.5-0.7,1.5-1.5S29.6,44.2,28.7,44.2z" />
        <path d="M42.7,44.2h-4.9c-0.8,0-1.5,0.7-1.5,1.5s0.7,1.5,1.5,1.5h4.9c0.8,0,1.5-0.7,1.5-1.5S43.6,44.2,42.7,44.2z" />
        <path d="M56.7,44.2h-4.9c-0.8,0-1.5,0.7-1.5,1.5s0.7,1.5,1.5,1.5h4.9c0.8,0,1.5-0.7,1.5-1.5S57.6,44.2,56.7,44.2z" />
        <path d="M70.7,44.2h-4.9c-0.8,0-1.5,0.7-1.5,1.5s0.7,1.5,1.5,1.5h4.9c0.8,0,1.5-0.7,1.5-1.5S71.6,44.2,70.7,44.2z" />
        <path d="M28.7,54.2h-4.9c-0.8,0-1.5,0.7-1.5,1.5s0.7,1.5,1.5,1.5h4.9c0.8,0,1.5-0.7,1.5-1.5S29.6,54.2,28.7,54.2z" />
        <path d="M42.7,54.2h-4.9c-0.8,0-1.5,0.7-1.5,1.5s0.7,1.5,1.5,1.5h4.9c0.8,0,1.5-0.7,1.5-1.5S43.6,54.2,42.7,54.2z" />
        <path d="M56.7,54.2h-4.9c-0.8,0-1.5,0.7-1.5,1.5s0.7,1.5,1.5,1.5h4.9c0.8,0,1.5-0.7,1.5-1.5S57.6,54.2,56.7,54.2z" />
        <path d="M70.7,54.2h-4.9c-0.8,0-1.5,0.7-1.5,1.5s0.7,1.5,1.5,1.5h4.9c0.8,0,1.5-0.7,1.5-1.5S71.6,54.2,70.7,54.2z" />
        <path d="M28.7,64.2h-4.9c-0.8,0-1.5,0.7-1.5,1.5s0.7,1.5,1.5,1.5h4.9c0.8,0,1.5-0.7,1.5-1.5S29.6,64.2,28.7,64.2z" />
        <path d="M42.7,64.2h-4.9c-0.8,0-1.5,0.7-1.5,1.5s0.7,1.5,1.5,1.5h4.9c0.8,0,1.5-0.7,1.5-1.5S43.6,64.2,42.7,64.2z" />
        <path d="M56.7,64.2h-4.9c-0.8,0-1.5,0.7-1.5,1.5s0.7,1.5,1.5,1.5h4.9c0.8,0,1.5-0.7,1.5-1.5S57.6,64.2,56.7,64.2z" />
        <path d="M70.7,64.2h-4.9c-0.8,0-1.5,0.7-1.5,1.5s0.7,1.5,1.5,1.5h4.9c0.8,0,1.5-0.7,1.5-1.5S71.6,64.2,70.7,64.2z" />
    </g>
</svg>