<svg xmlns="http://www.w3.org/2000/svg" xmlns:xlink="http://www.w3.org/1999/xlink" version="1.1" x="0px" y="0px" viewBox="0 0 100 125" enable-background="new 0 0 100 100" xml:space="preserve"><g><path d="M48.1,82.2c0,1.119,0.781,1.9,1.9,1.9c1.119,0,1.9-0.781,1.9-1.9s-0.781-1.9-1.9-1.9C48.881,80.3,48.1,81.081,48.1,82.2z"/><path d="M42.5,82.2c0,1.119,0.781,1.9,1.9,1.9s1.9-0.781,1.9-1.9s-0.781-1.9-1.9-1.9S42.5,81.081,42.5,82.2z"/><path d="M52.8,78.501c1.119,0,1.9-0.781,1.9-1.9s-0.781-1.9-1.9-1.9c-1.118,0-1.899,0.781-1.899,1.9S51.682,78.501,52.8,78.501z"/><path d="M47.2,78.501c1.119,0,1.9-0.781,1.9-1.9s-0.781-1.9-1.9-1.9c-1.119,0-1.9,0.781-1.9,1.9S46.081,78.501,47.2,78.501z"/><path d="M41.6,78.501c1.119,0,1.9-0.781,1.9-1.9s-0.781-1.9-1.9-1.9s-1.9,0.781-1.9,1.9S40.481,78.501,41.6,78.501z"/><path d="M53.7,82.2c0,1.119,0.781,1.9,1.899,1.9c1.119,0,1.9-0.781,1.9-1.9s-0.781-1.9-1.9-1.9C54.481,80.3,53.7,81.081,53.7,82.2z   "/><path d="M52.8,85.9c-1.118,0-1.899,0.781-1.899,1.899c0,1.119,0.781,1.9,1.899,1.9c1.119,0,1.9-0.781,1.9-1.9   C54.7,86.682,53.919,85.9,52.8,85.9z"/><path d="M47.2,85.9H36c-1.119,0-1.9,0.781-1.9,1.899c0,1.119,0.781,1.9,1.9,1.9h11.2c1.119,0,1.9-0.781,1.9-1.9   C49.1,86.682,48.319,85.9,47.2,85.9z"/><path d="M58.4,78.501c1.118,0,1.899-0.781,1.899-1.9s-0.781-1.9-1.899-1.9c-1.119,0-1.9,0.781-1.9,1.9S57.281,78.501,58.4,78.501z"/><path d="M58.4,85.9c-1.119,0-1.9,0.781-1.9,1.899c0,1.119,0.781,1.9,1.9,1.9c1.118,0,1.899-0.781,1.899-1.9   C60.3,86.682,59.519,85.9,58.4,85.9z"/><path d="M36.9,82.2c0,1.119,0.781,1.9,1.9,1.9c1.119,0,1.9-0.781,1.9-1.9s-0.781-1.9-1.9-1.9C37.681,80.3,36.9,81.081,36.9,82.2z"/><path d="M30.4,85.9c-1.119,0-1.9,0.781-1.9,1.899c0,1.119,0.781,1.9,1.9,1.9c1.119,0,1.9-0.781,1.9-1.9   C32.3,86.682,31.519,85.9,30.4,85.9z"/><path d="M78,73.3c-3.363,0-6.1,2.736-6.1,6.101v5.601c0,3.363,2.736,6.1,6.1,6.1s6.1-2.736,6.1-6.1V79.4   C84.1,76.036,81.363,73.3,78,73.3z M75.699,79.4c0-1.269,1.032-2.3,2.301-2.3c1.268,0,2.3,1.031,2.3,2.3v5.601   c0,1.268-1.032,2.299-2.3,2.299c-1.269,0-2.301-1.031-2.301-2.299V79.4z"/><path d="M50,46.7c-1.119,0-1.9,0.781-1.9,1.9s0.781,1.9,1.9,1.9c1.119,0,1.9-0.781,1.9-1.9S51.119,46.7,50,46.7z"/><path d="M78,4.7H22c-3.363,0-6.1,2.736-6.1,6.101v39.2c0,3.363,2.736,6.1,6.1,6.1h16.3v2.3c0,3.364,2.736,6.101,6.1,6.101h11.2   c3.364,0,6.101-2.736,6.101-6.101v-2.3H78c3.363,0,6.1-2.736,6.1-6.1v-39.2C84.1,7.437,81.363,4.7,78,4.7z M55.6,60.7H44.4   c-1.268,0-2.3-1.031-2.3-2.3v-2.3h15.8v2.3C57.9,59.669,56.868,60.7,55.6,60.7z M19.7,10.801C19.7,9.532,20.732,8.5,22,8.5h56   c1.268,0,2.3,1.032,2.3,2.301v39.2c0,1.268-1.032,2.299-2.3,2.299H22c-1.268,0-2.3-1.031-2.3-2.299V10.801z"/><path d="M64,69.101H19.2c-1.819,0-3.3,1.48-3.3,3.3v19.601c0,1.819,1.48,3.299,3.3,3.299H64c1.819,0,3.3-1.479,3.3-3.299V72.4   C67.3,70.581,65.819,69.101,64,69.101z M63.5,72.9v18.601H19.7V72.9H63.5z"/><path d="M78.5,10.301h-57v34.6h57V10.301z M25.3,41.101v-27h49.399v27H25.3z"/><path d="M36,78.501c1.119,0,1.9-0.781,1.9-1.9s-0.781-1.9-1.9-1.9s-1.9,0.781-1.9,1.9S34.881,78.501,36,78.501z"/><path d="M31.3,82.2c0,1.119,0.781,1.9,1.9,1.9s1.9-0.781,1.9-1.9s-0.781-1.9-1.9-1.9S31.3,81.081,31.3,82.2z"/><path d="M30.4,78.501c1.119,0,1.9-0.781,1.9-1.9s-0.781-1.9-1.9-1.9c-1.119,0-1.9,0.781-1.9,1.9S29.281,78.501,30.4,78.501z"/><path d="M24.8,78.501c1.119,0,1.9-0.781,1.9-1.9s-0.781-1.9-1.9-1.9c-1.119,0-1.9,0.781-1.9,1.9S23.681,78.501,24.8,78.501z"/><path d="M25.7,82.2c0,1.119,0.781,1.9,1.9,1.9s1.9-0.781,1.9-1.9s-0.781-1.9-1.9-1.9S25.7,81.081,25.7,82.2z"/><path d="M24.8,89.7c1.119,0,1.9-0.781,1.9-1.9c0-1.118-0.781-1.899-1.9-1.899c-1.119,0-1.9,0.781-1.9,1.899   C22.9,88.919,23.681,89.7,24.8,89.7z"/></g><text x="0" y="115" fill="#000000" font-size="5px" font-weight="bold" font-family="'Helvetica Neue', Helvetica, Arial-Unicode, Arial, Sans-serif">Created by Yorlmar Campos</text><text x="0" y="120" fill="#000000" font-size="5px" font-weight="bold" font-family="'Helvetica Neue', Helvetica, Arial-Unicode, Arial, Sans-serif">from the Noun Project</text></svg>