<svg xmlns="http://www.w3.org/2000/svg" xmlns:xlink="http://www.w3.org/1999/xlink" version="1.1" x="0px" y="0px" viewBox="0 0 440 440" enable-background="new 0 0 440 440" xml:space="preserve">
    <circle stroke="#000000" stroke-miterlimit="10" cx="217.2" cy="182.3" r="110.4"></circle>
    <g>
        <path d="M270,351.3c-33.2,9.1-64.2,9.1-97.9,0c-5.3-1.4-10-6.4-10.7-11c-4.3-41.2-18.2-82.4-48.2-123.6c-3.7-4.6-0.2-9.6,8.6-11   c61.7-9.1,127.1-9.1,189.5,0c8.8,1.4,12.8,6.4,9.3,11c-27.2,41.2-38.6,82.4-40.6,123.6C279.7,344.9,275.2,349.9,270,351.3z"></path>
        <path fill="none" stroke="#000000" stroke-miterlimit="10" d="M270,351.3c-33.2,9.1-64.2,9.1-97.9,0c-5.3-1.4-10-6.4-10.7-11   c-4.3-41.2-18.2-82.4-48.2-123.6c-3.7-4.6-0.2-9.6,8.6-11c61.7-9.1,127.1-9.1,189.5,0c8.8,1.4,12.8,6.4,9.3,11   c-27.2,41.2-38.6,82.4-40.6,123.6C279.7,344.9,275.2,349.9,270,351.3z"></path>
    </g>
    <g>
        <path d="M269.3,375.5c-32.6,5.6-66,5.6-98.6,0c-2.7-0.5-4.9-3.1-4.9-5.8c0-0.2,0-0.3,0-0.5c0-2.7,2.2-4.5,4.9-4.1   c32.6,5.6,66,5.6,98.6,0c2.7-0.5,4.9,1.3,4.9,4.1c0,0.2,0,0.3,0,0.5C274.2,372.4,272,375,269.3,375.5z"></path>
        <path fill="none" stroke="#000000" stroke-miterlimit="10" d="M269.3,375.5c-32.6,5.6-66,5.6-98.6,0c-2.7-0.5-4.9-3.1-4.9-5.8   c0-0.2,0-0.3,0-0.5c0-2.7,2.2-4.5,4.9-4.1c32.6,5.6,66,5.6,98.6,0c2.7-0.5,4.9,1.3,4.9,4.1c0,0.2,0,0.3,0,0.5   C274.2,372.4,272,375,269.3,375.5z"></path>
    </g>
    <g>
        <path d="M259.8,401c-26.5,2.6-53.1,2.6-79.6,0c-2.5-0.2-4.5-2.5-4.5-4.9c0-0.5,0-1,0-1.5c0-2.5,2-4.2,4.5-4   c26.5,2.6,53.1,2.6,79.6,0c2.5-0.2,4.5,1.5,4.5,4c0,0.5,0,1,0,1.5C264.2,398.5,262.2,400.7,259.8,401z"></path>
        <path fill="none" stroke="#000000" stroke-miterlimit="10" d="M259.8,401c-26.5,2.6-53.1,2.6-79.6,0c-2.5-0.2-4.5-2.5-4.5-4.9   c0-0.5,0-1,0-1.5c0-2.5,2-4.2,4.5-4c26.5,2.6,53.1,2.6,79.6,0c2.5-0.2,4.5,1.5,4.5,4c0,0.5,0,1,0,1.5   C264.2,398.5,262.2,400.7,259.8,401z"></path>
    </g>
    <g>
        <path d="M242.1,424.5c-13.9,0.9-27.9,0.9-41.8,0c-1.8-0.1-3.3-1.7-3.3-3.5c0-1.3,0-2.5,0-3.8c0-1.8,1.5-3.2,3.3-3.1   c13.9,0.9,27.9,0.9,41.8,0c1.8-0.1,3.3,1.2,3.3,3.1c0,1.3,0,2.5,0,3.8C245.4,422.8,244,424.4,242.1,424.5z"></path>
        <path fill="none" stroke="#000000" stroke-miterlimit="10" d="M242.1,424.5c-13.9,0.9-27.9,0.9-41.8,0c-1.8-0.1-3.3-1.7-3.3-3.5   c0-1.3,0-2.5,0-3.8c0-1.8,1.5-3.2,3.3-3.1c13.9,0.9,27.9,0.9,41.8,0c1.8-0.1,3.3,1.2,3.3,3.1c0,1.3,0,2.5,0,3.8   C245.4,422.8,244,424.4,242.1,424.5z"></path>
    </g>
    <g>
        <path d="M230.9,429.3h-18c-1.4,0-5.5-2-9.1-4.3h0c-3.6-2.4-4.1-4.3-1.2-4.3H240c2.9,0,2.7,2-0.6,4.3h0   C236.1,427.4,232.3,429.3,230.9,429.3z"></path>
        <path fill="none" stroke="#000000" stroke-miterlimit="10" d="M230.9,429.3h-18c-1.4,0-5.5-2-9.1-4.3h0c-3.6-2.4-4.1-4.3-1.2-4.3   H240c2.9,0,2.7,2-0.6,4.3h0C236.1,427.4,232.3,429.3,230.9,429.3z"></path>
    </g>
    <path stroke="#000000" stroke-miterlimit="10" d="M222.8,6.3v54.5c0,0.6-0.5,1.1-1.1,1.1h-0.9c-0.6,0-1.1-0.5-1.1-1.1V6.3  c0-0.6,0.5-1.1,1.1-1.1h0.9C222.3,5.2,222.8,5.7,222.8,6.3z"></path>
    <path stroke="#000000" stroke-miterlimit="10" d="M312.5,32.2l-27.2,47.2c-0.3,0.5-1,0.7-1.5,0.4l-0.8-0.4c-0.5-0.3-0.7-1-0.4-1.5  l27.2-47.2c0.3-0.5,1-0.7,1.5-0.4l0.8,0.4C312.6,31,312.8,31.7,312.5,32.2z"></path>
    <path stroke="#000000" stroke-miterlimit="10" d="M63.5,90.4l47.2,27.2c0.5,0.3,0.7,1,0.4,1.5l-0.4,0.8c-0.3,0.5-1,0.7-1.5,0.4  L61.9,93.1c-0.5-0.3-0.7-1-0.4-1.5l0.4-0.8C62.3,90.3,63,90.1,63.5,90.4z"></path>
    <path stroke="#000000" stroke-miterlimit="10" d="M129.2,30.6l27.2,47.2c0.3,0.5,0.1,1.2-0.4,1.5l-0.8,0.4c-0.5,0.3-1.2,0.1-1.5-0.4  l-27.2-47.2c-0.3-0.5-0.1-1.2,0.4-1.5l0.8-0.4C128.2,29.9,128.9,30.1,129.2,30.6z"></path>
    <path stroke="#000000" stroke-miterlimit="10" d="M372.4,93.1l-47.2,27.2c-0.5,0.3-1.2,0.1-1.5-0.4l-0.4-0.8  c-0.3-0.5-0.1-1.2,0.4-1.5l47.2-27.2c0.5-0.3,1.2-0.1,1.5,0.4l0.4,0.8C373.2,92.1,373,92.8,372.4,93.1z"></path>
</svg>