<svg xmlns="http://www.w3.org/2000/svg" xmlns:xlink="http://www.w3.org/1999/xlink" version="1.1" x="0px" y="0px" viewBox="0 0 100 100" enable-background="new 0 0 100 100" xml:space="preserve">
    <path d="M86.5,15.488c0-0.901-0.408-1.752-1.109-2.32c-0.703-0.567-1.626-0.791-2.509-0.603l-43.896,9.203  c-1.388,0.291-2.382,1.511-2.382,2.923v13.804v22.813c-2.404-1.748-5.354-2.792-8.552-2.792c-8.024,0-14.552,6.501-14.552,14.492  S20.028,87.5,28.052,87.5s14.552-6.501,14.552-14.492V40.921L80.5,32.975v19.323c-2.404-1.748-5.354-2.793-8.552-2.793  c-8.023,0-14.552,6.501-14.552,14.492s6.528,14.492,14.552,14.492S86.5,71.987,86.5,63.997V29.485c0-0.03-0.008-0.059-0.009-0.089  c0.001-0.035,0.009-0.068,0.009-0.103V15.488z M28.052,81.525c-4.715,0-8.552-3.82-8.552-8.516s3.836-8.516,8.552-8.516  s8.552,3.82,8.552,8.516S32.767,81.525,28.052,81.525z M42.604,27.116L80.5,19.17v7.699l-37.896,7.945V27.116z M71.948,72.513  c-4.716,0-8.552-3.82-8.552-8.516s3.836-8.516,8.552-8.516s8.552,3.82,8.552,8.516S76.664,72.513,71.948,72.513z" />
</svg>