<svg xmlns="http://www.w3.org/2000/svg" xmlns:xlink="http://www.w3.org/1999/xlink" version="1.1" x="0px" y="0px" viewBox="0 0 100 100" enable-background="new 0 0 100 100" xml:space="preserve">
    <g>
        <path fill="#000000" d="M32.1,76.5c-0.4,0-0.8-0.1-1.1-0.4L19.3,64.3c-0.6-0.6-0.6-1.5,0-2.1l47.1-47.1c0.6-0.6,1.5-0.6,2.1,0   l11.8,11.8c0.3,0.3,0.4,0.7,0.4,1.1s-0.2,0.8-0.4,1.1L33.2,76.1C32.9,76.4,32.5,76.5,32.1,76.5z M22.4,63.2l9.7,9.7l45-45l-9.7-9.7   L22.4,63.2z" />
    </g>
    <g>
        <path fill="#000000" d="M9.3,87.6c-0.4,0-0.8-0.2-1.1-0.4c-0.5-0.5-0.6-1.1-0.3-1.7l11-22.9c0.2-0.4,0.6-0.7,1.1-0.8   c0.5-0.1,1,0.1,1.3,0.4L33.2,74c0.3,0.3,0.5,0.8,0.4,1.3c-0.1,0.5-0.4,0.9-0.8,1.1l-22.9,11C9.7,87.5,9.5,87.6,9.3,87.6z    M20.7,65.8l-8.2,17.1l17.1-8.2L20.7,65.8z" />
    </g>
    <g>
        <rect x="71.7" y="12.3" transform="matrix(0.7071 0.7071 -0.7071 0.7071 35.3939 -49.4053)" fill="#000000" width="11.2" height="11.4" />
        <path fill="#000000" d="M77.3,27c-0.3,0-0.5-0.1-0.7-0.3l-7.9-7.9c-0.4-0.4-0.4-1,0-1.4l8-8c0.4-0.4,1-0.4,1.4,0l7.9,7.9   c0.4,0.4,0.4,1,0,1.4l-8,8C77.8,26.9,77.5,27,77.3,27z M70.8,18.1l6.5,6.5l6.6-6.6l-6.5-6.5L70.8,18.1z" />
    </g>
    <g>
        <path fill="#000000" d="M62.5,55.8c-0.4,0-0.8-0.1-1.1-0.4c-0.6-0.6-0.6-1.5,0-2.1l15.1-15.1l-3-3c-0.6-0.6-0.6-1.5,0-2.1   s1.5-0.6,2.1,0l4,4c0.3,0.3,0.4,0.7,0.4,1.1s-0.2,0.8-0.4,1.1L63.6,55.3C63.3,55.6,62.9,55.8,62.5,55.8z" />
    </g>
</svg>