<svg xmlns="http://www.w3.org/2000/svg" xmlns:xlink="http://www.w3.org/1999/xlink" version="1.1" x="0px" y="0px" viewBox="0 0 760 500" enable-background="new 0 0 960 560" xml:space="preserve">
    <path d="M480,61c-121,0-219,98-219,219s98,219,219,219c124.9,0,219-94.1,219-219C699,159,601,61,480,61z M588.6,299.6  c-10.6-6.2-20.7-9.5-30.2-9.5c-15.7,0-27.4,8.4-35.3,15.1c-3.4,2.2-7.8,5.6-9.5,5.6c0,0-0.6,0-1.1-1.1c-5.6-6.7-1.1-15.1,10.1-31.9  c8.4-12.3,17.9-26.3,17.9-40.9c0-8.4-2.8-19-6.2-30.8c-3.9-12.9-10.6-37-5-40.9c2.8-2.2,5-2.8,7.8-2.8c11.8,0,26.3,13.4,33,20.2  c2.8,2.2,6.7,6.7,11.2,11.8c19.6,21.8,35.3,38.1,49.8,38.6h1.1c19,0,30.2-13.4,35.8-24.6c5,9.5,11.2,30.2,11.2,74.5  c0,43.7-10.6,70-15.7,80.6c-6.7-2.2-17.4-5-24.6-5c-2.8,0-5,0.6-6.7,1.1c-7.3,2.2-12.3,6.7-17.4,10.6c-2.8,2.2-7.3,5.6-9,5.6  l-1.1-0.6c-4.5-3.4-3.4-15.1-2.2-25.8C604.3,332.1,606.6,310.8,588.6,299.6z M389.3,355c0.6,20.7-0.6,28-9.5,29.7h-0.6  c-12.9,0-33-39.2-38.1-52.6c-1.1-3.9,1.1-13.4,2.8-20.7c3.4-14,6.7-28.6-2.2-37.5c-2.8-2.8-6.7-4.5-11.2-4.5c-7.8,0-17.4,3.9-28,9  c-8.4,3.4-18.5,7.3-23.5,7.3c-1.1-23,10.6-73.4,24.1-89.6c1.1-1.7,3.9-1.7,5.6-1.7c9.5,0,23.5,6.7,29.1,9c5,2.2,8.4,6.7,11.8,12.3  c4.5,6.7,9.5,14.6,20.2,17.9c6.2,2.2,15.7,0.6,25.8-1.7c7.3-1.7,15.7-3.4,23-3.4c4.5,0,8.4,0.6,11.8,1.7c1.1,0.6,5,5,8.4,17.9  c5,19,5.6,39.8,2.2,45.4c-3.4,5-11.8,9-20.2,12.9c-10.6,4.5-20.7,9-26.9,17.9C388.7,332.1,388.7,343.3,389.3,355z M480,482.2  c-104.1,0-190-79.1-201-180.3c7.8,0,18.4-3.9,29.6-8.4c8.4-3.4,17.4-6.7,21.8-6.7c1.1,3.9-1.1,15.1-2.8,21.3  c-2.8,10.6-5,21.3-2.2,29.7c0,0.6,24.1,63.8,53.8,63.8c1.7,0,2.8-0.6,4.5-0.6c24.6-5,23.5-30.2,23-47c-0.6-7.8-0.6-17.4,1.7-20.7  c3.4-5,11.8-9,19.6-12.3c10.6-5,21.8-9.5,27.4-19.6c8.4-14,3.4-48.2-2.8-66.1c-4.5-12.3-9.5-19-16.2-21.8  c-5.6-1.7-11.2-2.8-17.9-2.8c-9,0-18.5,1.7-26.3,3.4c-6.2,1.1-11.2,2.2-15.1,2.2c-1.1,0-2.2,0-2.2,0c-4.5-1.7-7.3-5-11.2-11.2  c-3.9-6.2-9-14-19-18.5c-11.2-4.5-24.6-10.1-36.4-10.1c-0.6,0-1.1,0-1.6,0c35.4-59,99.9-98.6,173.5-98.6  c77.1,0,144.3,43.5,178.4,107.2l-1.4,5.4c0,0.6-6.2,25.8-24.6,25.8h-0.6c-8.4-0.6-28.6-22.4-38.1-33c-5-5-9-9.5-12.3-12.9  c-9-8.4-26.3-24.6-44.2-24.6c-6.7,0-12.9,2.2-17.9,6.2c-14.6,10.6-7.8,35.3-1.1,58.8c2.8,9.5,5.6,20.2,5.6,25.8  c0,9.5-7.3,20.7-14.6,31.4c-10.6,15.7-23.5,35.3-9,52.6c3.4,4.5,8.4,6.7,13.4,6.7c6.7,0,12.9-4.5,19-9c7.3-5.6,15.7-11.2,25.8-11.2  c6.7,0,13.4,2.8,21.3,7.3c8.4,5,7.8,16.2,6.2,33.6c-1.7,15.1-2.8,31.4,8.4,40.3c3.4,2.8,7.3,4.5,11.8,4.5c7.8,0,14-5,19.6-9.5  c3.9-3.4,7.8-6.7,11.8-7.8c0,0,0.6,0,1.7,0c5,0,13,2.1,19.1,3.9C627.4,437.9,567.4,482.2,480,482.2z" />
</svg>