<svg xmlns="http://www.w3.org/2000/svg" xmlns:xlink="http://www.w3.org/1999/xlink" version="1.1" viewBox="0 0 96 120" x="0px" y="0px"><path d="M32 62c-1.104 0-2-0.9-2-2v-24c0-1.1 0.896-2 2-2s2 0.9 2 2v24c0 1.1-0.896 2-2 2z" fill="#000000"/><path d="M48.208 96h-0.416c-9.812 0-17.792-7.98-17.792-17.788 0-1.096 0.896-2 2-2s2 0.904 2 2c0 7.6 6.188 13.788 13.792 13.788h0.416c7.604 0 13.792-6.188 13.792-13.788 0-1.096 0.9-2 2-2s2 0.904 2 2c0 9.808-7.98 17.788-17.792 17.788z" fill="#000000"/><path d="M64 62c-1.1 0-2-0.9-2-2v-24c0-1.1 0.9-2 2-2s2 0.9 2 2v24c0 1.1-0.9 2-2 2z" fill="#000000"/><path d="M64 19.788c-1.1 0-2-0.904-2-2 0-7.6-6.188-13.788-13.792-13.788h-0.416c-7.604 0-13.792 6.188-13.792 13.788 0 1.096-0.896 2-2 2s-2-0.904-2-2c0-9.812 7.98-17.788 17.792-17.788h0.416c9.812 0 17.792 7.98 17.792 17.788 0 1.112-0.9 2-2 2z" fill="#000000"/><path d="M40 36h-12c-1.104 0-2-0.9-2-2v-16c0-1.1 0.896-2 2-2h12c1.104 0 2 0.9 2 2v16c0 1.1-0.896 2-2 2zM30 32h8v-12h-8v12z" fill="#000000"/><path d="M68 36h-12c-1.1 0-2-0.9-2-2v-16c0-1.1 0.9-2 2-2h12c1.1 0 2 0.9 2 2v16c0 1.1-0.9 2-2 2zM58 32h8v-12h-8v12z" fill="#000000"/><path d="M40 80h-12c-1.104 0-2-0.9-2-2v-16c0-1.1 0.896-2 2-2h12c1.104 0 2 0.9 2 2v16c0 1.1-0.896 2-2 2zM30 76h8v-12h-8v12z" fill="#000000"/><path d="M68 80h-12c-1.1 0-2-0.9-2-2v-16c0-1.1 0.9-2 2-2h12c1.1 0 2 0.9 2 2v16c0 1.1-0.9 2-2 2zM58 76h8v-12h-8v12z" fill="#000000"/><path d="M54 28h-12c-1.104 0-2-0.9-2-2s0.896-2 2-2h12c1.1 0 2 0.9 2 2s-0.9 2-2 2z" fill="#000000"/><path d="M54 72h-12c-1.104 0-2-0.9-2-2s0.896-2 2-2h12c1.1 0 2 0.9 2 2s-0.9 2-2 2z" fill="#000000"/><text x="0" y="111" fill="#000000" font-size="5px" font-weight="bold" font-family="'Helvetica Neue', Helvetica, Arial-Unicode, Arial, Sans-serif">Created by iconsmind.com</text><text x="0" y="116" fill="#000000" font-size="5px" font-weight="bold" font-family="'Helvetica Neue', Helvetica, Arial-Unicode, Arial, Sans-serif">from the Noun Project</text></svg>