<svg xmlns="http://www.w3.org/2000/svg" xmlns:xlink="http://www.w3.org/1999/xlink" version="1.2" baseProfile="tiny" x="0px" y="0px" viewBox="0 0 56.693 70.86625" xml:space="preserve"><path d="M43.429,48.819C43.429,48.819,43.429,48.819,43.429,48.819c-1.48,0-2.859-0.587-3.884-1.654l-18.609-19.36  c-0.231-0.241-0.582-0.337-0.912-0.251c-0.853,0.225-1.728,0.339-2.601,0.339c-2.584,0-4.991-0.985-6.779-2.773  c-2.636-2.636-3.475-6.686-2.138-10.318c0.156-0.423,0.516-0.738,0.956-0.835c0.439-0.098,0.9,0.035,1.219,0.353l4.587,4.557  c0.158,0.156,0.341,0.18,0.436,0.18c0.096,0,0.281-0.024,0.438-0.183l2.791-2.809c0.24-0.242,0.239-0.634-0.003-0.875l-4.55-4.52  c-0.322-0.32-0.458-0.783-0.36-1.226c0.098-0.443,0.417-0.805,0.844-0.959c1.125-0.406,2.294-0.611,3.475-0.611  c2.583,0,4.991,0.984,6.778,2.772c2.432,2.432,3.342,5.938,2.433,9.381c-0.087,0.33,0.009,0.679,0.252,0.912l19.359,18.609  c1.052,1.011,1.639,2.372,1.654,3.83c0.014,1.459-0.546,2.831-1.578,3.862C46.22,48.258,44.868,48.819,43.429,48.819z   M20.267,24.874c0.969,0,1.909,0.399,2.578,1.096l18.609,19.36c0.521,0.542,1.223,0.84,1.975,0.84h0  c0.731,0,1.419-0.284,1.936-0.802c0.524-0.525,0.809-1.222,0.802-1.964c-0.007-0.742-0.306-1.433-0.841-1.947l-19.36-18.609  c-0.935-0.899-1.309-2.239-0.977-3.497c0.665-2.521,0.013-5.075-1.745-6.833c-1.365-1.365-3.265-2.084-5.247-1.988l2.799,2.781  c1.278,1.269,1.285,3.342,0.015,4.62l-2.79,2.809c-0.617,0.622-1.44,0.965-2.317,0.965c-0.868,0-1.686-0.337-2.302-0.949  l-2.876-2.857c-0.125,1.997,0.569,3.928,1.989,5.349c1.287,1.287,3.03,1.997,4.906,1.997c0.646,0,1.294-0.085,1.926-0.251  C19.649,24.914,19.958,24.874,20.267,24.874z M42.191,42.194c-0.657,0.657-0.657,1.721,0,2.378c0.657,0.657,1.721,0.657,2.378,0  c0.657-0.657,0.657-1.721,0-2.378C43.913,41.538,42.848,41.538,42.191,42.194z"/><text x="0" y="71.693" fill="#000000" font-size="5px" font-weight="bold" font-family="'Helvetica Neue', Helvetica, Arial-Unicode, Arial, Sans-serif">Created by Jean-Philippe Cabaroc</text><text x="0" y="76.693" fill="#000000" font-size="5px" font-weight="bold" font-family="'Helvetica Neue', Helvetica, Arial-Unicode, Arial, Sans-serif">from the Noun Project</text></svg>